<?xml version="1.0" encoding="utf-8"?>
<svg viewBox="-35.761 930.405 57.514 66.238" width="57.514" height="66.238" xmlns="http://www.w3.org/2000/svg">
  <g>
    <path fill-rule="nonzero" fill="#85c2ac" fill-opacity="1" d="M -4.397 952.844 C -5.788 952.844 -6.919 953.976 -6.919 955.367 C -6.919 956.758 -5.788 957.89 -4.397 957.89 C -3.006 957.89 -1.874 956.758 -1.874 955.367 C -1.874 953.976 -3.006 952.844 -4.397 952.844 Z M -4.397 960.909 C -7.452 960.909 -9.939 958.423 -9.939 955.367 C -9.939 952.311 -7.452 949.825 -4.397 949.825 C -1.341 949.825 1.145 952.311 1.145 955.367 C 1.145 958.423 -1.341 960.909 -4.397 960.909" style=""/>
    <path fill-rule="nonzero" fill="#85c2ac" fill-opacity="1" d="M -8.261 996.643 L -11.28 996.643 L -11.28 976.15 L -5.906 971.675 L -5.906 959.399 L -2.887 959.399 L -2.887 973.09 L -8.261 977.565 L -8.261 996.643" style=""/>
    <path fill-rule="nonzero" fill="#85c2ac" fill-opacity="1" d="M 5.75 945.206 C 4.359 945.206 3.228 946.338 3.228 947.729 C 3.228 949.12 4.359 950.252 5.75 950.252 C 7.141 950.252 8.273 949.12 8.273 947.729 C 8.273 946.338 7.141 945.206 5.75 945.206 Z M 5.75 953.272 C 2.694 953.272 0.208 950.785 0.208 947.729 C 0.208 944.673 2.694 942.187 5.75 942.187 C 8.806 942.187 11.293 944.673 11.293 947.729 C 11.293 950.785 8.806 953.272 5.75 953.272" style=""/>
    <path fill-rule="nonzero" fill="#85c2ac" fill-opacity="1" d="M 1.886 996.643 L -1.133 996.643 L -1.133 968.879 L 4.241 964.404 L 4.241 951.762 L 7.26 951.762 L 7.26 965.819 L 1.886 970.294 L 1.886 996.643" style=""/>
    <path fill-rule="nonzero" fill="#85c2ac" fill-opacity="1" d="M 16.211 959.549 C 14.82 959.549 13.689 960.681 13.689 962.072 C 13.689 963.463 14.82 964.595 16.211 964.595 C 17.602 964.595 18.733 963.463 18.733 962.072 C 18.733 960.681 17.602 959.549 16.211 959.549 Z M 16.211 967.614 C 13.155 967.614 10.669 965.128 10.669 962.072 C 10.669 959.016 13.155 956.53 16.211 956.53 C 19.267 956.53 21.753 959.016 21.753 962.072 C 21.753 965.128 19.267 967.614 16.211 967.614" style=""/>
    <path fill-rule="nonzero" fill="#85c2ac" fill-opacity="1" d="M 12.347 996.643 L 9.327 996.643 L 9.327 987.781 L 14.701 983.307 L 14.701 966.104 L 17.721 966.104 L 17.721 984.722 L 12.347 989.197 L 12.347 996.643" style=""/>
    <path fill-rule="nonzero" fill="#85c2ac" fill-opacity="1" d="M -19.759 940.074 C -21.15 940.074 -22.281 941.205 -22.281 942.597 C -22.281 943.988 -21.15 945.119 -19.759 945.119 C -18.368 945.119 -17.236 943.988 -17.236 942.597 C -17.236 941.205 -18.368 940.074 -19.759 940.074 Z M -19.759 948.139 C -22.815 948.139 -25.301 945.653 -25.301 942.597 C -25.301 939.54 -22.815 937.054 -19.759 937.054 C -16.703 937.054 -14.217 939.54 -14.217 942.597 C -14.217 945.653 -16.703 948.139 -19.759 948.139" style=""/>
    <path fill-rule="nonzero" fill="#85c2ac" fill-opacity="1" d="M -12.875 996.643 L -15.895 996.643 L -15.895 970.294 L -21.269 965.819 L -21.269 946.629 L -18.249 946.629 L -18.249 964.404 L -12.875 968.879 L -12.875 996.643" style=""/>
    <path fill-rule="nonzero" fill="#85c2ac" fill-opacity="1" d="M -18.249 938.564 L -21.269 938.564 L -21.269 930.405 L -18.249 930.405 L -18.249 938.564" style=""/>
    <path fill-rule="nonzero" fill="#85c2ac" fill-opacity="1" d="M -30.219 968.313 C -31.61 968.313 -32.742 969.445 -32.742 970.836 C -32.742 972.227 -31.61 973.358 -30.219 973.358 C -28.828 973.358 -27.697 972.227 -27.697 970.836 C -27.697 969.445 -28.828 968.313 -30.219 968.313 Z M -30.219 976.378 C -33.275 976.378 -35.761 973.892 -35.761 970.836 C -35.761 967.78 -33.275 965.294 -30.219 965.294 C -27.163 965.294 -24.677 967.78 -24.677 970.836 C -24.677 973.892 -27.163 976.378 -30.219 976.378" style=""/>
    <path fill-rule="nonzero" fill="#85c2ac" fill-opacity="1" d="M -23.335 996.643 L -26.355 996.643 L -26.355 989.197 L -31.729 984.722 L -31.729 974.868 L -28.71 974.868 L -28.71 983.307 L -23.335 987.781 L -23.335 996.643" style=""/>
  </g>
</svg>