<?xml version="1.0" encoding="utf-8"?>
<svg viewBox="48.5088 117.1028 111.0414 30.9438" width="111.0414" height="30.9438" xmlns="http://www.w3.org/2000/svg">
  <g style="" transform="matrix(0.462336003780365, 0, 0, 0.462336003780365, 26.0814266204834, 79.599365234375)">
    <g transform="matrix(0.006263, 0, 0, -0.005684, 48.508766, 147.847473)" fill="#85c2ac" stroke="none" style="">
      <path d="M0 5870 l0 -5870 6400 0 6400 0 0 5870 0 5870 -2778 0 -2778 0 -23 -41 c-40 -70 -137 -183 -210 -244 -260 -216 -586 -289 -918 -205 -221 57 -455 226 -582 423 l-44 67 -2733 0 -2734 0 0 -5870z m1180 5228 c18 -13 43 -36 54 -51 21 -28 21 -38 21 -440 l0 -412 -24 -34 c-46 -64 -77 -71 -336 -71 -220 0 -233 1 -275 23 -33 16 -51 34 -67 67 -23 44 -23 50 -23 430 0 381 1 385 23 425 12 22 38 50 56 62 33 22 40 23 286 23 245 0 253 -1 285 -22z m1611 -1 c19 -12 44 -42 57 -67 23 -45 23 -46 20 -435 -3 -387 -3 -390 -26 -427 -14 -22 -40 -45 -67 -58 -41 -20 -56 -21 -288 -18 -273 3 -274 4 -324 78 -23 33 -23 35 -23 433 0 388 1 400 21 437 12 20 38 47 58 58 34 20 50 22 287 22 244 0 252 -1 285 -23z m1600 0 c18 -12 44 -38 56 -56 23 -34 23 -34 23 -436 0 -400 0 -402 -22 -435 -51 -74 -52 -75 -325 -78 -232 -3 -247 -2 -288 18 -27 13 -53 36 -67 58 -23 37 -23 41 -26 414 -3 394 0 433 40 483 39 50 62 54 329 55 240 0 247 -1 280 -23z m1609 1 c18 -13 43 -36 54 -51 21 -28 21 -38 21 -440 l0 -412 -24 -34 c-46 -64 -77 -71 -336 -71 -220 0 -233 1 -275 23 -30 14 -53 36 -67 62 -22 39 -23 45 -23 427 0 401 2 422 43 467 43 47 66 50 328 51 239 0 247 -1 279 -22z m1622 -10 c67 -52 69 -65 66 -498 -3 -381 -3 -385 -26 -422 -14 -22 -40 -45 -67 -58 -41 -20 -56 -21 -288 -18 -273 3 -274 4 -324 78 -23 33 -23 34 -23 434 1 451 0 446 76 493 39 23 40 23 295 21 l256 -3 35 -27z m1604 5 c64 -45 64 -49 64 -491 0 -397 0 -399 -22 -432 -51 -74 -52 -75 -325 -78 -229 -3 -247 -2 -286 17 -23 12 -53 37 -67 58 l-25 36 -3 379 c-3 394 0 433 40 483 41 52 61 55 338 52 246 -2 256 -3 286 -24z m1594 5 c18 -13 43 -36 54 -51 20 -28 21 -40 24 -430 2 -401 2 -402 -21 -442 -14 -26 -37 -48 -67 -62 -42 -22 -56 -23 -275 -23 -219 0 -233 1 -275 23 -30 14 -53 36 -67 62 -23 40 -23 41 -21 442 3 390 4 402 24 430 11 15 36 38 54 51 32 21 40 22 285 22 245 0 253 -1 285 -22z m1618 -6 c68 -49 67 -43 67 -487 0 -399 0 -400 -23 -437 -14 -22 -40 -45 -67 -58 -41 -20 -56 -21 -288 -18 -273 3 -274 4 -324 78 -23 33 -23 35 -23 432 0 324 3 404 14 426 16 30 63 76 86 85 8 3 130 5 270 4 249 -2 256 -3 288 -25z m-115 -1196 c66 -25 149 -104 178 -168 l24 -53 3 -3730 c2 -2733 0 -3748 -8 -3796 -20 -116 -103 -211 -212 -244 -46 -13 -688 -15 -5908 -15 -5220 0 -5862 2 -5908 15 -109 33 -192 128 -212 244 -8 48 -10 1063 -8 3796 l3 3730 24 52 c26 60 103 136 159 160 20 9 60 19 87 23 28 4 2678 7 5890 6 5664 -1 5841 -2 5888 -20z m-11155 -8254 c18 -13 41 -41 53 -63 19 -38 20 -56 17 -438 l-3 -398 -29 -37 c-48 -64 -66 -67 -346 -64 -273 3 -273 3 -324 72 -20 26 -21 42 -24 414 -2 213 0 401 3 419 3 18 18 47 32 64 48 56 63 59 338 56 244 -2 251 -3 283 -25z m1591 8 c22 -11 49 -35 61 -54 21 -35 21 -44 23 -438 l2 -403 -24 -38 c-44 -72 -68 -77 -342 -77 -226 0 -244 1 -278 21 -20 11 -45 32 -56 47 -19 26 -20 45 -23 427 -1 220 0 410 3 422 8 32 55 84 90 99 22 10 93 13 268 14 217 0 241 -2 276 -20z m1618 -6 c15 -11 38 -36 51 -54 22 -33 22 -35 22 -435 0 -402 0 -402 -23 -436 -12 -18 -38 -44 -57 -57 -34 -23 -37 -23 -290 -20 -381 4 -359 -27 -360 513 0 375 0 381 23 425 14 30 36 53 62 68 39 22 46 22 292 20 237 -3 253 -4 280 -24z m1612 -3 c69 -49 71 -61 71 -486 0 -375 0 -381 -22 -425 -44 -85 -43 -85 -343 -85 -251 0 -265 1 -291 21 -15 11 -37 33 -48 48 -20 26 -21 42 -24 414 -2 213 0 401 3 419 3 18 18 47 32 64 48 56 63 59 338 56 246 -2 251 -2 284 -26z m1593 7 c21 -12 48 -37 59 -55 19 -31 20 -51 22 -435 l2 -403 -24 -38 c-44 -72 -68 -77 -342 -77 -239 0 -243 0 -284 25 -77 44 -76 40 -73 502 3 460 0 441 83 483 37 18 59 20 279 20 227 0 240 -1 278 -22z m1615 -4 c15 -11 38 -36 51 -54 22 -33 22 -35 22 -435 0 -402 0 -402 -23 -436 -12 -18 -38 -44 -57 -57 -34 -23 -37 -23 -290 -20 -381 4 -359 -27 -360 513 0 375 0 381 23 425 14 30 36 53 62 68 39 22 46 22 292 20 237 -3 253 -4 280 -24z m1612 -3 c69 -49 71 -61 71 -486 0 -375 0 -381 -22 -425 -44 -85 -43 -85 -343 -85 -251 0 -265 1 -291 21 -15 11 -37 33 -48 48 -20 26 -21 42 -24 414 -2 213 0 401 3 419 3 18 18 47 32 64 48 56 63 59 338 56 246 -2 251 -2 284 -26z m1591 6 c81 -43 80 -39 83 -493 l2 -399 -24 -38 c-44 -72 -68 -77 -341 -77 -273 0 -297 5 -341 77 l-24 38 2 399 c3 454 2 450 83 493 41 22 52 23 280 23 228 0 239 -1 280 -23z"/>
    </g>
    <g transform="matrix(0.006263, 0, 0, -0.005684, 128.584106, 147.92897)" fill="#85c2ac" stroke="none" style="">
      <path d="M0 5870 l0 -5870 6400 0 6400 0 0 5870 0 5870 -2778 0 -2778 0 -23 -41 c-40 -70 -137 -183 -210 -244 -260 -216 -586 -289 -918 -205 -221 57 -455 226 -582 423 l-44 67 -2733 0 -2734 0 0 -5870z m1180 5228 c18 -13 43 -36 54 -51 21 -28 21 -38 21 -440 l0 -412 -24 -34 c-46 -64 -77 -71 -336 -71 -220 0 -233 1 -275 23 -33 16 -51 34 -67 67 -23 44 -23 50 -23 430 0 381 1 385 23 425 12 22 38 50 56 62 33 22 40 23 286 23 245 0 253 -1 285 -22z m1611 -1 c19 -12 44 -42 57 -67 23 -45 23 -46 20 -435 -3 -387 -3 -390 -26 -427 -14 -22 -40 -45 -67 -58 -41 -20 -56 -21 -288 -18 -273 3 -274 4 -324 78 -23 33 -23 35 -23 433 0 388 1 400 21 437 12 20 38 47 58 58 34 20 50 22 287 22 244 0 252 -1 285 -23z m1600 0 c18 -12 44 -38 56 -56 23 -34 23 -34 23 -436 0 -400 0 -402 -22 -435 -51 -74 -52 -75 -325 -78 -232 -3 -247 -2 -288 18 -27 13 -53 36 -67 58 -23 37 -23 41 -26 414 -3 394 0 433 40 483 39 50 62 54 329 55 240 0 247 -1 280 -23z m1609 1 c18 -13 43 -36 54 -51 21 -28 21 -38 21 -440 l0 -412 -24 -34 c-46 -64 -77 -71 -336 -71 -220 0 -233 1 -275 23 -30 14 -53 36 -67 62 -22 39 -23 45 -23 427 0 401 2 422 43 467 43 47 66 50 328 51 239 0 247 -1 279 -22z m1622 -10 c67 -52 69 -65 66 -498 -3 -381 -3 -385 -26 -422 -14 -22 -40 -45 -67 -58 -41 -20 -56 -21 -288 -18 -273 3 -274 4 -324 78 -23 33 -23 34 -23 434 1 451 0 446 76 493 39 23 40 23 295 21 l256 -3 35 -27z m1604 5 c64 -45 64 -49 64 -491 0 -397 0 -399 -22 -432 -51 -74 -52 -75 -325 -78 -229 -3 -247 -2 -286 17 -23 12 -53 37 -67 58 l-25 36 -3 379 c-3 394 0 433 40 483 41 52 61 55 338 52 246 -2 256 -3 286 -24z m1594 5 c18 -13 43 -36 54 -51 20 -28 21 -40 24 -430 2 -401 2 -402 -21 -442 -14 -26 -37 -48 -67 -62 -42 -22 -56 -23 -275 -23 -219 0 -233 1 -275 23 -30 14 -53 36 -67 62 -23 40 -23 41 -21 442 3 390 4 402 24 430 11 15 36 38 54 51 32 21 40 22 285 22 245 0 253 -1 285 -22z m1618 -6 c68 -49 67 -43 67 -487 0 -399 0 -400 -23 -437 -14 -22 -40 -45 -67 -58 -41 -20 -56 -21 -288 -18 -273 3 -274 4 -324 78 -23 33 -23 35 -23 432 0 324 3 404 14 426 16 30 63 76 86 85 8 3 130 5 270 4 249 -2 256 -3 288 -25z m-115 -1196 c66 -25 149 -104 178 -168 l24 -53 3 -3730 c2 -2733 0 -3748 -8 -3796 -20 -116 -103 -211 -212 -244 -46 -13 -688 -15 -5908 -15 -5220 0 -5862 2 -5908 15 -109 33 -192 128 -212 244 -8 48 -10 1063 -8 3796 l3 3730 24 52 c26 60 103 136 159 160 20 9 60 19 87 23 28 4 2678 7 5890 6 5664 -1 5841 -2 5888 -20z m-11155 -8254 c18 -13 41 -41 53 -63 19 -38 20 -56 17 -438 l-3 -398 -29 -37 c-48 -64 -66 -67 -346 -64 -273 3 -273 3 -324 72 -20 26 -21 42 -24 414 -2 213 0 401 3 419 3 18 18 47 32 64 48 56 63 59 338 56 244 -2 251 -3 283 -25z m1591 8 c22 -11 49 -35 61 -54 21 -35 21 -44 23 -438 l2 -403 -24 -38 c-44 -72 -68 -77 -342 -77 -226 0 -244 1 -278 21 -20 11 -45 32 -56 47 -19 26 -20 45 -23 427 -1 220 0 410 3 422 8 32 55 84 90 99 22 10 93 13 268 14 217 0 241 -2 276 -20z m1618 -6 c15 -11 38 -36 51 -54 22 -33 22 -35 22 -435 0 -402 0 -402 -23 -436 -12 -18 -38 -44 -57 -57 -34 -23 -37 -23 -290 -20 -381 4 -359 -27 -360 513 0 375 0 381 23 425 14 30 36 53 62 68 39 22 46 22 292 20 237 -3 253 -4 280 -24z m1612 -3 c69 -49 71 -61 71 -486 0 -375 0 -381 -22 -425 -44 -85 -43 -85 -343 -85 -251 0 -265 1 -291 21 -15 11 -37 33 -48 48 -20 26 -21 42 -24 414 -2 213 0 401 3 419 3 18 18 47 32 64 48 56 63 59 338 56 246 -2 251 -2 284 -26z m1593 7 c21 -12 48 -37 59 -55 19 -31 20 -51 22 -435 l2 -403 -24 -38 c-44 -72 -68 -77 -342 -77 -239 0 -243 0 -284 25 -77 44 -76 40 -73 502 3 460 0 441 83 483 37 18 59 20 279 20 227 0 240 -1 278 -22z m1615 -4 c15 -11 38 -36 51 -54 22 -33 22 -35 22 -435 0 -402 0 -402 -23 -436 -12 -18 -38 -44 -57 -57 -34 -23 -37 -23 -290 -20 -381 4 -359 -27 -360 513 0 375 0 381 23 425 14 30 36 53 62 68 39 22 46 22 292 20 237 -3 253 -4 280 -24z m1612 -3 c69 -49 71 -61 71 -486 0 -375 0 -381 -22 -425 -44 -85 -43 -85 -343 -85 -251 0 -265 1 -291 21 -15 11 -37 33 -48 48 -20 26 -21 42 -24 414 -2 213 0 401 3 419 3 18 18 47 32 64 48 56 63 59 338 56 246 -2 251 -2 284 -26z m1591 6 c81 -43 80 -39 83 -493 l2 -399 -24 -38 c-44 -72 -68 -77 -341 -77 -273 0 -297 5 -341 77 l-24 38 2 399 c3 454 2 450 83 493 41 22 52 23 280 23 228 0 239 -1 280 -23z"/>
    </g>
    <g transform="matrix(0.006263, 0, 0, -0.005684, 208.516968, 148.046616)" fill="#85c2ac" stroke="none" style="">
      <path d="M0 5870 l0 -5870 6400 0 6400 0 0 5870 0 5870 -2778 0 -2778 0 -23 -41 c-40 -70 -137 -183 -210 -244 -260 -216 -586 -289 -918 -205 -221 57 -455 226 -582 423 l-44 67 -2733 0 -2734 0 0 -5870z m1180 5228 c18 -13 43 -36 54 -51 21 -28 21 -38 21 -440 l0 -412 -24 -34 c-46 -64 -77 -71 -336 -71 -220 0 -233 1 -275 23 -33 16 -51 34 -67 67 -23 44 -23 50 -23 430 0 381 1 385 23 425 12 22 38 50 56 62 33 22 40 23 286 23 245 0 253 -1 285 -22z m1611 -1 c19 -12 44 -42 57 -67 23 -45 23 -46 20 -435 -3 -387 -3 -390 -26 -427 -14 -22 -40 -45 -67 -58 -41 -20 -56 -21 -288 -18 -273 3 -274 4 -324 78 -23 33 -23 35 -23 433 0 388 1 400 21 437 12 20 38 47 58 58 34 20 50 22 287 22 244 0 252 -1 285 -23z m1600 0 c18 -12 44 -38 56 -56 23 -34 23 -34 23 -436 0 -400 0 -402 -22 -435 -51 -74 -52 -75 -325 -78 -232 -3 -247 -2 -288 18 -27 13 -53 36 -67 58 -23 37 -23 41 -26 414 -3 394 0 433 40 483 39 50 62 54 329 55 240 0 247 -1 280 -23z m1609 1 c18 -13 43 -36 54 -51 21 -28 21 -38 21 -440 l0 -412 -24 -34 c-46 -64 -77 -71 -336 -71 -220 0 -233 1 -275 23 -30 14 -53 36 -67 62 -22 39 -23 45 -23 427 0 401 2 422 43 467 43 47 66 50 328 51 239 0 247 -1 279 -22z m1622 -10 c67 -52 69 -65 66 -498 -3 -381 -3 -385 -26 -422 -14 -22 -40 -45 -67 -58 -41 -20 -56 -21 -288 -18 -273 3 -274 4 -324 78 -23 33 -23 34 -23 434 1 451 0 446 76 493 39 23 40 23 295 21 l256 -3 35 -27z m1604 5 c64 -45 64 -49 64 -491 0 -397 0 -399 -22 -432 -51 -74 -52 -75 -325 -78 -229 -3 -247 -2 -286 17 -23 12 -53 37 -67 58 l-25 36 -3 379 c-3 394 0 433 40 483 41 52 61 55 338 52 246 -2 256 -3 286 -24z m1594 5 c18 -13 43 -36 54 -51 20 -28 21 -40 24 -430 2 -401 2 -402 -21 -442 -14 -26 -37 -48 -67 -62 -42 -22 -56 -23 -275 -23 -219 0 -233 1 -275 23 -30 14 -53 36 -67 62 -23 40 -23 41 -21 442 3 390 4 402 24 430 11 15 36 38 54 51 32 21 40 22 285 22 245 0 253 -1 285 -22z m1618 -6 c68 -49 67 -43 67 -487 0 -399 0 -400 -23 -437 -14 -22 -40 -45 -67 -58 -41 -20 -56 -21 -288 -18 -273 3 -274 4 -324 78 -23 33 -23 35 -23 432 0 324 3 404 14 426 16 30 63 76 86 85 8 3 130 5 270 4 249 -2 256 -3 288 -25z m-115 -1196 c66 -25 149 -104 178 -168 l24 -53 3 -3730 c2 -2733 0 -3748 -8 -3796 -20 -116 -103 -211 -212 -244 -46 -13 -688 -15 -5908 -15 -5220 0 -5862 2 -5908 15 -109 33 -192 128 -212 244 -8 48 -10 1063 -8 3796 l3 3730 24 52 c26 60 103 136 159 160 20 9 60 19 87 23 28 4 2678 7 5890 6 5664 -1 5841 -2 5888 -20z m-11155 -8254 c18 -13 41 -41 53 -63 19 -38 20 -56 17 -438 l-3 -398 -29 -37 c-48 -64 -66 -67 -346 -64 -273 3 -273 3 -324 72 -20 26 -21 42 -24 414 -2 213 0 401 3 419 3 18 18 47 32 64 48 56 63 59 338 56 244 -2 251 -3 283 -25z m1591 8 c22 -11 49 -35 61 -54 21 -35 21 -44 23 -438 l2 -403 -24 -38 c-44 -72 -68 -77 -342 -77 -226 0 -244 1 -278 21 -20 11 -45 32 -56 47 -19 26 -20 45 -23 427 -1 220 0 410 3 422 8 32 55 84 90 99 22 10 93 13 268 14 217 0 241 -2 276 -20z m1618 -6 c15 -11 38 -36 51 -54 22 -33 22 -35 22 -435 0 -402 0 -402 -23 -436 -12 -18 -38 -44 -57 -57 -34 -23 -37 -23 -290 -20 -381 4 -359 -27 -360 513 0 375 0 381 23 425 14 30 36 53 62 68 39 22 46 22 292 20 237 -3 253 -4 280 -24z m1612 -3 c69 -49 71 -61 71 -486 0 -375 0 -381 -22 -425 -44 -85 -43 -85 -343 -85 -251 0 -265 1 -291 21 -15 11 -37 33 -48 48 -20 26 -21 42 -24 414 -2 213 0 401 3 419 3 18 18 47 32 64 48 56 63 59 338 56 246 -2 251 -2 284 -26z m1593 7 c21 -12 48 -37 59 -55 19 -31 20 -51 22 -435 l2 -403 -24 -38 c-44 -72 -68 -77 -342 -77 -239 0 -243 0 -284 25 -77 44 -76 40 -73 502 3 460 0 441 83 483 37 18 59 20 279 20 227 0 240 -1 278 -22z m1615 -4 c15 -11 38 -36 51 -54 22 -33 22 -35 22 -435 0 -402 0 -402 -23 -436 -12 -18 -38 -44 -57 -57 -34 -23 -37 -23 -290 -20 -381 4 -359 -27 -360 513 0 375 0 381 23 425 14 30 36 53 62 68 39 22 46 22 292 20 237 -3 253 -4 280 -24z m1612 -3 c69 -49 71 -61 71 -486 0 -375 0 -381 -22 -425 -44 -85 -43 -85 -343 -85 -251 0 -265 1 -291 21 -15 11 -37 33 -48 48 -20 26 -21 42 -24 414 -2 213 0 401 3 419 3 18 18 47 32 64 48 56 63 59 338 56 246 -2 251 -2 284 -26z m1591 6 c81 -43 80 -39 83 -493 l2 -399 -24 -38 c-44 -72 -68 -77 -341 -77 -273 0 -297 5 -341 77 l-24 38 2 399 c3 454 2 450 83 493 41 22 52 23 280 23 228 0 239 -1 280 -23z"/>
    </g>
  </g>
</svg>