<svg viewBox="-798.9491 858.2766 485.7871 94.6485" width="485.7871" height="94.6485" xmlns="http://www.w3.org/2000/svg">
  <g transform="matrix(1, 0, 0, 1, 70.5210037231443, 154.27365112304688)">
    <g transform="matrix(1, 0, 0, 1, 26.52018, 115.132118)">
      <g transform="matrix(-0.095892, 0, 0, -0.10008, -688.394897, 688.371704)" fill="#000000" stroke="none" style="">
        <path d="M533 973 c3 -5 35 -105 71 -223 37 -118 88 -279 112 -357 l45 -143 110 0 c60 0 109 3 109 7 0 5 -50 169 -112 365 l-112 358 -113 0 c-63 0 -112 -3 -110 -7z" style="fill: rgb(176, 178, 180);"/>
        <path d="M1082 698 c49 -156 100 -320 114 -365 l25 -83 110 0 c62 0 109 4 109 10 0 5 -49 167 -110 360 -60 192 -110 352 -110 355 0 3 -51 5 -114 5 l-113 0 89 -282z" style="fill: rgb(176, 178, 180);"/>
        <path d="M1460 973 c0 -5 50 -169 111 -366 l112 -357 112 0 112 0 -89 283 c-49 155 -100 319 -114 365 l-25 82 -110 0 c-60 0 -109 -3 -109 -7z" style="fill: rgb(176, 178, 180);"/>
      </g>
      <g transform="matrix(0.1, 0, 0, -0.1, -903.090271, 688.366455)" fill="#000000" stroke="none">
        <path d="M80 953 c5 -16 32 -102 60 -193 29 -91 76 -243 106 -337 l55 -173 111 0 c100 0 110 2 106 18 -3 9 -54 173 -114 365 l-109 347 -112 0 -112 0 9 -27z" style="fill: rgb(97, 98, 101);"/>
        <path d="M533 973 c3 -5 35 -105 71 -223 37 -118 88 -279 112 -357 l45 -143 110 0 c60 0 109 3 109 7 0 5 -50 169 -112 365 l-112 358 -113 0 c-63 0 -112 -3 -110 -7z" style="fill: rgb(97, 98, 101);"/>
        <path d="M1082 698 c49 -156 100 -320 114 -365 l25 -83 110 0 c62 0 109 4 109 10 0 5 -49 167 -110 360 -60 192 -110 352 -110 355 0 3 -51 5 -114 5 l-113 0 89 -282z" style="fill: rgb(97, 98, 101);"/>
        <path d="M1460 973 c0 -5 50 -169 111 -366 l112 -357 112 0 112 0 -89 283 c-49 155 -100 319 -114 365 l-25 82 -110 0 c-60 0 -109 -3 -109 -7z" style="fill: rgb(97, 98, 101);"/>
      </g>
    </g>
    <ellipse style="stroke: rgb(245, 146, 71); paint-order: fill; fill: rgb(245, 146, 71);" cx="-766.311" cy="766.367" rx="3.389" ry="3.389"/>
    <path d="M -665.103 765.816 C -665.103 766.4086666666667 -665.0079999999999 766.9633333333334 -664.818 767.48 C -664.628 767.9966666666667 -664.3583333333333 768.445 -664.009 768.825 C -663.6596666666667 769.205 -663.238 769.5053333333333 -662.744 769.726 C -662.25 769.9466666666667 -661.6913333333333 770.057 -661.068 770.057 C -660.4599999999999 770.057 -659.8936666666666 769.9466666666667 -659.369 769.726 C -658.845 769.5053333333333 -658.393 769.205 -658.013 768.825 C -657.633 768.445 -657.3363333333333 767.9966666666667 -657.123 767.48 C -656.9103333333334 766.9633333333334 -656.804 766.4086666666667 -656.804 765.816 C -656.804 765.2233333333334 -656.9103333333334 764.6683333333333 -657.123 764.151 C -657.3363333333333 763.6343333333333 -657.633 763.186 -658.013 762.806 C -658.393 762.426 -658.845 762.126 -659.369 761.906 C -659.8936666666666 761.6853333333333 -660.4599999999999 761.575 -661.068 761.575 C -661.6913333333333 761.575 -662.25 761.6853333333333 -662.744 761.906 C -663.238 762.126 -663.6596666666667 762.426 -664.009 762.806 C -664.3583333333333 763.186 -664.628 763.6343333333333 -664.818 764.151 C -665.0079999999999 764.6683333333333 -665.103 765.2233333333334 -665.103 765.816 Z" transform="matrix(3.961107, 0, 0, 4.088749, 1997.544312, -2376.764893)" style="fill: rgb(145, 147, 150);"/>
    <path d="M -608.858 760.481 C -608.8273333333333 760.7696666666667 -608.8083333333334 761.0546666666667 -608.801 761.336 C -608.7936666666667 761.6166666666667 -608.79 761.9016666666666 -608.79 762.191 L -608.744 762.191 C -608.5766666666667 761.9016666666666 -608.364 761.6356666666667 -608.106 761.393 C -607.8473333333333 761.1496666666667 -607.5583333333333 760.9406666666666 -607.239 760.766 C -606.9196666666667 760.5906666666667 -606.5816666666667 760.4536666666667 -606.225 760.355 C -605.8676666666667 760.2563333333334 -605.514 760.207 -605.164 760.207 C -603.7959999999999 760.207 -602.7853333333333 760.568 -602.132 761.29 C -601.4786666666666 762.0120000000001 -601.152 763.0416666666667 -601.152 764.379 L -601.152 771.151 L -602.656 771.151 L -602.656 765.246 C -602.656 764.06 -602.8613333333333 763.1516666666666 -603.272 762.521 C -603.6826666666667 761.8903333333334 -604.4426666666667 761.575 -605.552 761.575 C -605.628 761.575 -605.8406666666667 761.6053333333334 -606.19 761.666 C -606.5400000000001 761.7266666666667 -606.9086666666667 761.894 -607.296 762.168 C -607.6840000000001 762.4413333333333 -608.03 762.8516666666667 -608.334 763.399 C -608.6379999999999 763.9463333333333 -608.79 764.7063333333333 -608.79 765.679 L -608.79 771.151 L -610.294 771.151 L -610.294 762.829 C -610.294 762.5403333333333 -610.3056666666666 762.1756666666666 -610.329 761.735 C -610.3516666666667 761.2936666666667 -610.378 760.8756666666667 -610.408 760.481 L -608.858 760.481 Z" transform="matrix(3.961107, 0, 0, 4.088749, 1997.544312, -2376.764893)" style="fill: rgb(145, 147, 150);"/>
    <path d="M -623.405 773.294 C -622.9643333333333 773.8866666666667 -622.3903333333334 774.3616666666667 -621.683 774.719 C -620.9763333333334 775.0763333333333 -620.19 775.255 -619.324 775.255 C -618.564 775.255 -617.918 775.1446666666667 -617.386 774.924 C -616.8539999999999 774.7040000000001 -616.4243333333333 774.404 -616.097 774.024 C -615.7703333333333 773.644 -615.535 773.1993333333334 -615.391 772.69 C -615.2463333333333 772.1806666666668 -615.174 771.6373333333333 -615.174 771.06 L -615.174 769.145 L -615.22 769.145 C -615.706 769.8743333333333 -616.2986666666667 770.3910000000001 -616.998 770.695 C -617.6973333333334 770.999 -618.4346666666667 771.151 -619.21 771.151 C -619.9846666666666 771.151 -620.7103333333333 771.0143333333333 -621.387 770.741 C -622.0636666666667 770.467 -622.6526666666667 770.0906666666667 -623.154 769.612 C -623.6553333333333 769.1333333333333 -624.0506666666666 768.5596666666667 -624.34 767.891 C -624.6286666666667 767.2216666666666 -624.773 766.4996666666666 -624.773 765.725 C -624.773 764.9496666666666 -624.636 764.2276666666667 -624.362 763.559 C -624.0886666666667 762.8896666666666 -623.7126666666667 762.3043333333333 -623.234 761.803 C -622.7553333333333 761.3016666666667 -622.1853333333333 760.9103333333334 -621.524 760.629 C -620.8626666666667 760.3476666666667 -620.1366666666667 760.207 -619.346 760.207 C -619.0273333333333 760.207 -618.6893333333334 760.2373333333334 -618.332 760.298 C -617.9746666666667 760.3586666666666 -617.6173333333334 760.465 -617.26 760.617 C -616.9026666666667 760.769 -616.5493333333334 760.9780000000001 -616.2 761.244 C -615.8506666666667 761.51 -615.524 761.8483333333334 -615.22 762.259 L -615.174 762.259 L -615.174 760.481 L -613.669 760.481 L -613.669 771.06 C -613.669 771.6373333333333 -613.7413333333333 772.253 -613.886 772.907 C -614.03 773.5603333333333 -614.311 774.1606666666667 -614.729 774.708 C -615.147 775.2553333333333 -615.7286666666666 775.7113333333333 -616.474 776.076 C -617.2186666666666 776.4406666666667 -618.1913333333333 776.623 -619.392 776.623 C -620.456 776.623 -621.4060000000001 776.4483333333334 -622.242 776.099 C -623.078 775.749 -623.838 775.2093333333333 -624.522 774.48 L -623.405 773.294 Z" transform="matrix(3.961107, 0, 0, 4.088749, 1997.544312, -2376.764893)" style="fill: rgb(145, 147, 150);"/>
    <path d="M -623.131 765.679 C -623.131 766.2416666666667 -623.0283333333333 766.77 -622.823 767.264 C -622.6183333333333 767.758 -622.3373333333333 768.191 -621.98 768.563 C -621.6226666666666 768.9356666666666 -621.2046666666666 769.232 -620.726 769.452 C -620.2473333333334 769.6726666666667 -619.7266666666667 769.783 -619.164 769.783 C -618.6166666666667 769.783 -618.096 769.6843333333334 -617.602 769.487 C -617.108 769.289 -616.671 769.0113333333334 -616.291 768.654 C -615.9110000000001 768.2973333333333 -615.6183333333333 767.868 -615.413 767.366 C -615.2083333333334 766.8646666666667 -615.1133333333333 766.3023333333333 -615.128 765.679 C -615.128 765.1163333333334 -615.2193333333333 764.5880000000001 -615.402 764.094 C -615.5846666666667 763.6 -615.8506666666667 763.1669999999999 -616.2 762.795 C -616.5493333333334 762.4223333333333 -616.975 762.126 -617.477 761.906 C -617.9783333333334 761.6853333333333 -618.5406666666667 761.575 -619.164 761.575 C -619.7266666666667 761.575 -620.2473333333334 761.6853333333333 -620.726 761.906 C -621.2046666666666 762.126 -621.6226666666666 762.4223333333333 -621.98 762.795 C -622.3373333333333 763.1669999999999 -622.6183333333333 763.6 -622.823 764.094 C -623.0283333333333 764.5880000000001 -623.131 765.1163333333334 -623.131 765.679 Z" transform="matrix(3.961107, 0, 0, 4.088749, 1997.544312, -2376.764893)" style="fill: rgb(145, 147, 150);"/>
    <path d="M -627.85 771.151 L -629.355 771.151 L -629.355 760.481 L -627.85 760.481 L -627.85 771.151 Z" transform="matrix(3.961107, 0, 0, 4.088749, 1997.544312, -2376.764893)" style="fill: rgb(145, 147, 150);"/>
    <path d="M -627.508 756.377 C -627.508 756.6956666666666 -627.6220000000001 756.9576666666667 -627.85 757.163 C -628.078 757.3683333333333 -628.3286666666667 757.471 -628.602 757.471 C -628.876 757.471 -629.1270000000001 757.3683333333333 -629.355 757.163 C -629.583 756.9576666666667 -629.697 756.6956666666666 -629.697 756.377 C -629.697 756.0576666666667 -629.583 755.7953333333334 -629.355 755.59 C -629.1270000000001 755.3846666666667 -628.876 755.282 -628.602 755.282 C -628.3286666666667 755.282 -628.078 755.3846666666667 -627.85 755.59 C -627.6220000000001 755.7953333333334 -627.508 756.0576666666667 -627.508 756.377 Z" transform="matrix(3.961107, 0, 0, 4.088749, 1997.544312, -2376.764893)" style="fill: rgb(145, 147, 150);"/>
    <path d="M -633.756 763.011 C -633.9839999999999 762.5703333333333 -634.288 762.221 -634.668 761.963 C -635.048 761.7043333333334 -635.5116666666667 761.575 -636.059 761.575 C -636.3176666666667 761.575 -636.58 761.6053333333334 -636.846 761.666 C -637.112 761.7266666666667 -637.3513333333333 761.8216666666666 -637.564 761.951 C -637.7766666666666 762.0803333333333 -637.9476666666667 762.2436666666666 -638.077 762.441 C -638.2063333333333 762.639 -638.271 762.8823333333333 -638.271 763.171 C -638.271 763.6723333333333 -638.096 764.037 -637.746 764.265 C -637.3966666666666 764.4929999999999 -636.8723333333334 764.6906666666666 -636.173 764.858 L -634.645 765.223 C -633.9003333333334 765.3903333333334 -633.2810000000001 765.7286666666668 -632.787 766.238 C -632.293 766.7466666666667 -632.046 767.381 -632.046 768.141 C -632.046 768.719 -632.164 769.217 -632.4 769.635 C -632.6353333333334 770.053 -632.9466666666667 770.395 -633.334 770.661 C -633.722 770.9269999999999 -634.1666666666667 771.1206666666666 -634.668 771.242 C -635.1700000000001 771.3639999999999 -635.6793333333334 771.425 -636.196 771.425 C -637.0166666666667 771.425 -637.7803333333334 771.269 -638.487 770.957 C -639.1936666666667 770.6456666666667 -639.798 770.11 -640.3 769.35 L -639 768.461 C -638.696 768.947 -638.3123333333333 769.3343333333333 -637.849 769.623 C -637.385 769.9123333333333 -636.8340000000001 770.057 -636.196 770.057 C -635.892 770.057 -635.588 770.0226666666666 -635.284 769.954 C -634.98 769.8853333333333 -634.71 769.779 -634.474 769.635 C -634.2386666666666 769.4903333333333 -634.0486666666667 769.304 -633.904 769.076 C -633.76 768.8480000000001 -633.688 768.582 -633.688 768.278 C -633.688 767.746 -633.8856666666667 767.3623333333334 -634.281 767.127 C -634.6756666666666 766.891 -635.1543333333334 766.7046666666666 -635.717 766.568 L -637.176 766.226 C -637.3586666666667 766.1806666666666 -637.6056666666667 766.1046666666667 -637.917 765.998 C -638.229 765.892 -638.533 765.7323333333334 -638.829 765.519 C -639.1256666666667 765.3063333333333 -639.3803333333333 765.029 -639.593 764.687 C -639.8056666666666 764.345 -639.912 763.9233333333333 -639.912 763.422 C -639.912 762.8746666666667 -639.802 762.3956666666667 -639.582 761.985 C -639.3613333333333 761.575 -639.0646666666667 761.2406666666667 -638.692 760.982 C -638.32 760.724 -637.8983333333333 760.5303333333334 -637.427 760.401 C -636.9556666666667 760.2716666666666 -636.4693333333333 760.207 -635.968 760.207 C -635.2233333333334 760.207 -634.5316666666666 760.3513333333333 -633.893 760.64 C -633.2543333333333 760.9286666666667 -632.7603333333333 761.4226666666666 -632.411 762.122 L -633.756 763.011 Z" transform="matrix(3.961107, 0, 0, 4.088749, 1997.544312, -2376.764893)" style="fill: rgb(145, 147, 150);"/>
    <path d="M -651.037 766.226 C -650.9916666666667 766.758 -650.8626666666667 767.2596666666667 -650.65 767.731 C -650.4366666666667 768.2023333333333 -650.1553333333334 768.609 -649.806 768.951 C -649.4566666666667 769.293 -649.054 769.5626666666667 -648.598 769.76 C -648.1419999999999 769.958 -647.648 770.057 -647.116 770.057 C -646.3100000000001 770.057 -645.6143333333333 769.8706666666667 -645.029 769.498 C -644.4443333333334 769.1253333333333 -644 768.696 -643.696 768.21 L -642.533 769.167 C -643.171 769.973 -643.874 770.5506666666666 -644.642 770.9 C -645.4093333333334 771.25 -646.234 771.425 -647.116 771.425 C -647.9060000000001 771.425 -648.6393333333334 771.2843333333333 -649.316 771.003 C -649.9920000000001 770.7216666666667 -650.5733333333334 770.3303333333333 -651.06 769.829 C -651.5466666666666 769.327 -651.9303333333334 768.734 -652.211 768.05 C -652.4923333333334 767.366 -652.633 766.6213333333334 -652.633 765.816 C -652.633 765.01 -652.4963333333334 764.265 -652.223 763.581 C -651.949 762.8969999999999 -651.569 762.3043333333333 -651.083 761.803 C -650.5963333333333 761.3016666666667 -650.0263333333334 760.9103333333334 -649.373 760.629 C -648.719 760.3476666666667 -648.0120000000001 760.207 -647.252 760.207 C -646.4466666666666 760.207 -645.7246666666666 760.3513333333333 -645.086 760.64 C -644.448 760.9286666666667 -643.9123333333333 761.3126666666667 -643.479 761.792 C -643.0456666666666 762.2706666666667 -642.7149999999999 762.833 -642.487 763.479 C -642.259 764.125 -642.145 764.8126666666667 -642.145 765.542 L -642.145 766.226 L -651.037 766.226 Z" transform="matrix(3.961107, 0, 0, 4.088749, 1997.544312, -2376.764893)" style="fill: rgb(145, 147, 150);"/>
    <path d="M -643.787 764.995 C -643.787 763.9763333333333 -644.091 763.1516666666666 -644.699 762.521 C -645.307 761.8903333333334 -646.158 761.575 -647.252 761.575 C -647.7386666666666 761.575 -648.21 761.6700000000001 -648.666 761.86 C -649.1220000000001 762.05 -649.5210000000001 762.3046666666667 -649.863 762.624 C -650.205 762.9433333333333 -650.4786666666666 763.308 -650.684 763.718 C -650.8893333333333 764.1286666666666 -650.992 764.5543333333333 -650.992 764.995 L -643.787 764.995 Z" transform="matrix(3.961107, 0, 0, 4.088749, 1997.544312, -2376.764893)" style="fill: rgb(145, 147, 150);"/>
    <path d="M -655.368 771.151 L -656.873 771.151 L -656.873 769.373 L -656.918 769.373 C -657.1613333333333 769.7376666666667 -657.4503333333333 770.049 -657.785 770.307 C -658.1189999999999 770.5656666666667 -658.4683333333332 770.7786666666667 -658.833 770.946 C -659.1983333333333 771.1133333333333 -659.5746666666666 771.235 -659.962 771.311 C -660.3493333333333 771.387 -660.718 771.425 -661.068 771.425 C -661.904 771.425 -662.6676666666667 771.2843333333333 -663.359 771.003 C -664.051 770.7216666666667 -664.6476666666667 770.3303333333333 -665.149 769.829 C -665.6503333333333 769.327 -666.0416666666666 768.734 -666.323 768.05 C -666.6043333333333 767.366 -666.745 766.6213333333334 -666.745 765.816 C -666.745 765.01 -666.6043333333333 764.265 -666.323 763.581 C -666.0416666666666 762.8969999999999 -665.6503333333333 762.3043333333333 -665.149 761.803 C -664.6476666666667 761.3016666666667 -664.051 760.9103333333334 -663.359 760.629 C -662.6676666666667 760.3476666666667 -661.904 760.207 -661.068 760.207 C -660.718 760.207 -660.3493333333333 760.245 -659.962 760.321 C -659.5746666666666 760.3969999999999 -659.1983333333333 760.5186666666666 -658.833 760.686 C -658.4683333333332 760.8533333333334 -658.1189999999999 761.066 -657.785 761.324 C -657.4503333333333 761.5826666666667 -657.1613333333333 761.8943333333333 -656.918 762.259 L -656.873 762.259 L -656.873 753.914 L -655.368 753.914 L -655.368 771.151 Z" transform="matrix(3.961107, 0, 0, 4.088749, 1997.544312, -2376.764893)" style="fill: rgb(145, 147, 150);"/>
    <ellipse style="stroke: rgb(245, 146, 71); paint-order: fill; fill: rgb(245, 146, 71);" cx="-492.325" cy="715.81" rx="4.031" ry="4.031"/>
    <path d="M -665.81 753.914 L -664.442 753.914 L -664.442 771.561 L -665.81 771.561 Z" transform="matrix(2.852148, 0, 0, 4.235357, 1233.183228, -2489.091797)" style="fill: rgb(145, 147, 150);"/>
    <ellipse style="stroke: rgb(245, 146, 71); paint-order: fill; fill: rgb(245, 146, 71);" cx="-766.658" cy="766.684" rx="4.031" ry="4.031"/>
  </g>
</svg>