<svg viewBox="-517.9303 282.4653 193.2209 77.2806" width="193.2209" height="77.2806" xmlns="http://www.w3.org/2000/svg">
  <g transform="matrix(0.012877000495791435, 0, 0, -0.012877000495791435, -517.9287719726561, 359.7361145019531)" fill="#000" stroke="none" style="">
    <path d="M200 5991 c-71 -23 -141 -83 -175 -150 -23 -46 -31 -140 -15 -194 31 -114 144 -199 262 -200 159 -1 279 119 279 278 0 107 -60 203 -156 250 -43 21 -153 30 -195 16z"/>
    <path d="M1094 5988 c-59 -19 -127 -81 -158 -140 -93 -184 42 -401 250 -402 115 0 224 78 260 187 20 60 15 156 -11 207 -24 49 -83 108 -130 132 -46 24 -162 33 -211 16z"/>
    <path d="M1990 5983 c-68 -25 -145 -106 -166 -178 -51 -176 72 -352 249 -358 87 -3 144 20 209 82 46 46 60 67 73 115 64 220 -147 415 -365 339z"/>
    <path d="M2892 5980 c-72 -33 -110 -69 -143 -136 -29 -58 -31 -70 -27 -138 4 -56 11 -85 31 -119 52 -88 142 -140 242 -140 153 0 275 119 275 269 0 118 -50 203 -152 253 -75 38 -158 42 -226 11z"/>
    <path d="M3804 5984 c-104 -37 -180 -149 -178 -264 1 -79 19 -125 73 -183 162 -176 454 -80 478 158 21 200 -181 357 -373 289z"/>
    <path d="M4730 5991 c-69 -21 -141 -83 -175 -150 -42 -83 -28 -205 33 -286 103 -136 305 -145 421 -20 54 58 73 107 74 186 2 117 -73 227 -181 263 -48 17 -129 20 -172 7z"/>
    <path d="M5593 5970 c-263 -133 -169 -525 124 -523 162 1 284 135 271 297 -6 72 -26 116 -77 169 -53 56 -104 79 -186 84 -63 4 -76 2 -132 -27z"/>
    <path d="M183 5077 c-108 -40 -183 -147 -183 -262 0 -49 6 -75 31 -123 50 -101 134 -154 243 -155 293 -2 386 397 124 527 -58 29 -156 35 -215 13z"/>
    <path d="M1062 5064 c-212 -106 -205 -408 13 -505 101 -45 243 -16 310 63 54 64 70 107 70 193 0 70 -4 87 -30 134 -31 56 -88 106 -148 128 -59 22 -157 16 -215 -13z"/>
    <path d="M1975 5066 c-177 -82 -217 -313 -80 -451 107 -106 281 -106 389 2 106 106 111 267 12 380 -80 91 -213 120 -321 69z"/>
    <path d="M2869 5062 c-60 -31 -120 -101 -138 -162 -54 -181 77 -362 262 -362 160 0 276 116 277 278 0 160 -113 273 -276 274 -59 0 -81 -5 -125 -28z"/>
    <path d="M3790 5069 c-59 -26 -106 -72 -138 -134 -21 -40 -26 -64 -26 -120 0 -86 27 -147 89 -204 59 -54 107 -73 185 -73 108 -1 193 49 246 144 25 46 29 63 29 133 0 92 -19 136 -82 197 -80 77 -206 101 -303 57z"/>
    <path d="M4715 5077 c-87 -33 -153 -106 -176 -191 -23 -85 3 -189 66 -264 67 -80 208 -108 313 -62 220 96 219 410 -2 511 -47 21 -153 24 -201 6z"/>
    <path d="M5605 5071 c-103 -47 -156 -125 -163 -241 -4 -62 -1 -85 16 -122 87 -197 346 -232 473 -64 47 61 63 119 56 196 -9 108 -80 201 -177 235 -58 21 -156 19 -205 -4z"/>
    <path d="M7072 4953 l3 -58 198 -3 197 -2 0 -448 0 -447 -83 -83 -82 -82 -115 0 -114 0 -97 103 -98 102 -40 -40 c-23 -21 -41 -44 -41 -50 0 -20 205 -214 242 -230 45 -18 232 -21 293 -4 50 14 218 174 246 234 17 37 19 75 19 553 l0 512 -265 0 -266 0 3 -57z"/>
    <path d="M8369 4983 c-6 -16 -66 -174 -134 -353 -184 -484 -337 -893 -343 -912 -4 -16 3 -18 51 -18 32 0 59 5 64 12 4 7 38 91 74 188 l66 175 325 3 325 2 73 -190 73 -190 57 0 c31 0 59 2 62 5 3 3 -28 95 -69 203 -41 108 -148 393 -238 632 -90 239 -166 443 -170 453 -6 15 -21 17 -106 17 -99 0 -100 0 -110 -27z m214 -328 c53 -143 112 -304 131 -357 l36 -98 -275 0 c-151 0 -275 2 -275 4 0 2 61 165 135 362 74 196 135 359 135 362 0 24 30 -49 113 -273z"/>
    <path d="M9423 4908 c-58 -57 -111 -115 -119 -130 -10 -20 -14 -69 -14 -187 0 -157 0 -160 26 -190 14 -18 35 -36 45 -41 15 -8 770 -110 816 -110 6 0 19 -7 27 -16 13 -12 16 -39 16 -127 l0 -112 -86 -82 -87 -83 -237 0 -236 0 -99 100 c-54 55 -101 100 -104 100 -4 0 -25 -18 -46 -40 l-39 -40 114 -115 c81 -81 125 -118 150 -125 49 -14 475 -13 525 1 30 8 66 36 138 108 54 53 105 108 113 123 10 20 14 68 14 180 0 134 -2 157 -20 185 -34 57 -57 62 -484 114 -219 27 -405 54 -413 60 -9 8 -13 42 -13 123 l0 112 83 87 82 87 235 0 235 0 100 -100 c55 -55 104 -100 110 -100 6 0 29 18 50 40 l39 40 -104 106 c-58 58 -117 112 -132 120 -22 11 -83 14 -304 14 l-277 0 -104 -102z"/>
    <path d="M10829 4904 c-59 -59 -113 -118 -119 -133 -7 -18 -10 -152 -8 -429 l3 -402 111 -111 c88 -88 118 -112 150 -119 21 -5 142 -10 267 -10 183 0 235 3 265 15 40 17 215 183 238 227 11 22 14 98 14 418 0 267 -4 398 -11 413 -16 32 -189 206 -221 223 -22 11 -83 14 -304 14 l-277 0 -108 -106z m714 -103 l87 -88 0 -354 0 -354 -88 -88 -87 -87 -235 0 -234 0 -83 83 -83 83 0 358 0 359 87 88 87 89 231 0 231 0 87 -89z"/>
    <path d="M12190 4355 l0 -655 60 0 60 0 2 593 3 592 244 -475 c135 -261 272 -527 305 -590 l61 -115 100 0 100 0 3 653 2 652 -65 0 -65 0 -2 -586 -3 -586 -89 174 c-328 639 -453 881 -483 936 l-34 62 -99 0 -100 0 0 -655z"/>
    <path d="M221 4179 c-95 -18 -185 -102 -212 -197 -6 -23 -9 -68 -6 -100 20 -223 286 -331 455 -186 119 101 126 298 14 407 -65 63 -163 93 -251 76z"/>
    <path d="M1133 4179 c-180 -35 -279 -230 -199 -394 123 -250 498 -181 523 97 7 76 -11 139 -58 198 -61 78 -169 118 -266 99z"/>
    <path d="M2023 4176 c-205 -50 -280 -296 -138 -454 62 -69 127 -96 220 -90 76 5 115 21 171 70 86 76 115 218 65 320 -57 119 -193 184 -318 154z"/>
    <path d="M2940 4179 c-90 -18 -186 -103 -210 -187 -37 -136 19 -270 140 -331 103 -51 204 -41 296 28 132 100 141 312 19 420 -70 61 -158 87 -245 70z"/>
    <path d="M3853 4179 c-161 -31 -263 -190 -219 -342 20 -70 68 -133 129 -171 67 -41 170 -48 245 -16 71 31 137 105 158 178 58 199 -112 390 -313 351z"/>
    <path d="M4751 4179 c-137 -26 -233 -160 -218 -304 28 -274 402 -337 523 -88 100 203 -81 435 -305 392z"/>
    <path d="M5663 4179 c-130 -25 -222 -134 -223 -265 0 -162 103 -273 262 -282 55 -3 76 0 120 20 134 62 199 208 154 345 -42 126 -182 208 -313 182z"/>
    <path d="M185 3263 c-70 -24 -146 -102 -170 -172 -80 -242 173 -456 396 -334 159 86 188 312 58 442 -70 70 -188 97 -284 64z"/>
    <path d="M1092 3261 c-109 -38 -185 -144 -185 -260 0 -109 50 -194 143 -245 104 -57 225 -43 315 36 59 52 86 107 93 184 7 90 -18 155 -83 220 -80 81 -175 102 -283 65z"/>
    <path d="M2025 3271 c-158 -42 -246 -198 -201 -356 24 -81 100 -157 181 -181 263 -76 469 221 302 437 -61 80 -188 125 -282 100z"/>
    <path d="M2909 3265 c-57 -18 -133 -84 -161 -139 -30 -59 -36 -162 -13 -223 40 -103 153 -183 260 -183 99 0 207 68 250 155 11 24 21 69 23 112 3 60 0 80 -20 125 -46 99 -129 157 -237 164 -33 2 -75 -2 -102 -11z"/>
    <path d="M3833 3270 c-147 -35 -241 -197 -199 -343 45 -154 197 -237 351 -193 81 24 157 100 181 181 61 211 -121 406 -333 355z"/>
    <path d="M4716 3264 c-102 -32 -186 -152 -186 -264 0 -118 85 -233 195 -266 185 -53 360 76 359 265 0 80 -25 142 -79 196 -73 72 -190 101 -289 69z"/>
    <path d="M5622 3261 c-112 -39 -182 -139 -182 -262 0 -240 282 -368 457 -206 70 64 88 106 88 207 0 75 -3 91 -27 132 -53 90 -151 149 -247 148 -20 -1 -60 -9 -89 -19z"/>
    <path d="M7020 2550 l0 -670 365 0 c290 0 372 3 398 14 53 23 177 156 187 202 13 53 12 231 0 274 -6 21 -37 62 -82 107 l-72 72 76 79 c59 62 76 87 81 118 10 61 8 225 -3 266 -12 41 -92 135 -154 180 l-39 28 -379 0 -378 0 0 -670z m771 493 l59 -56 0 -115 0 -116 -73 -73 -73 -73 -277 0 -277 0 0 245 0 245 291 0 290 0 60 -57z m-13 -627 l72 -74 0 -109 0 -109 -58 -57 -58 -57 -292 0 -292 0 0 240 0 240 278 0 279 0 71 -74z"/>
    <path d="M8420 2550 l0 -670 65 0 65 0 0 300 0 300 202 -2 202 -3 186 -295 186 -295 72 -3 c40 -2 72 0 72 3 0 4 -85 139 -189 301 -184 286 -189 294 -161 294 51 0 84 20 163 98 51 51 81 89 87 112 16 58 12 295 -5 338 -18 41 -125 155 -167 178 -22 11 -97 14 -403 14 l-375 0 0 -670z m772 493 l58 -57 0 -131 0 -131 -58 -57 -58 -57 -292 0 -292 0 0 245 0 245 292 0 292 0 58 -57z"/>
    <path d="M9800 2685 c0 -445 2 -541 14 -563 21 -40 207 -219 239 -231 37 -14 407 -14 444 0 32 12 218 191 239 231 12 22 14 118 14 563 l0 535 -60 0 -60 0 0 -516 0 -517 -87 -88 -87 -89 -181 0 -181 0 -87 89 -87 88 0 517 0 516 -60 0 -60 0 0 -535z"/>
    <path d="M11394 3191 c-66 -49 -192 -184 -209 -223 -13 -31 -15 -98 -15 -417 0 -241 4 -390 11 -408 14 -37 206 -231 246 -249 40 -17 446 -20 489 -4 15 6 69 52 121 102 51 50 94 90 96 87 2 -2 9 -31 16 -64 7 -33 17 -77 22 -97 l10 -38 65 0 c62 0 64 1 59 23 -37 160 -39 181 -45 442 l-5 270 -260 0 -260 0 -3 -62 -3 -63 201 0 200 0 0 -113 0 -112 -128 -128 -127 -127 -200 0 -200 0 -87 87 -88 88 0 370 0 371 89 87 88 87 234 0 234 0 107 -107 108 -108 45 45 45 46 -123 122 -124 122 -285 0 -285 0 -39 -29z"/>
    <path d="M12730 2550 l0 -670 415 0 415 0 0 65 0 65 -350 0 -350 0 0 240 0 240 350 0 350 0 0 65 0 65 -350 0 -350 0 0 240 0 240 350 0 350 0 0 60 0 60 -415 0 -415 0 0 -670z"/>
    <path d="M14058 3102 c-137 -135 -137 -136 -138 -307 0 -157 17 -207 82 -241 19 -10 788 -114 842 -114 3 0 12 -7 20 -16 13 -12 16 -39 16 -127 l0 -112 -88 -88 -87 -87 -240 0 -240 0 -100 100 c-55 55 -104 100 -110 100 -6 0 -29 -18 -50 -40 l-39 -40 109 -111 c61 -61 124 -117 142 -125 40 -17 525 -20 570 -3 32 12 218 191 239 231 10 20 14 68 14 192 l0 165 -30 35 c-17 19 -45 39 -63 45 -18 5 -207 31 -422 57 -235 28 -399 52 -412 61 -22 13 -23 20 -23 126 l0 112 92 93 91 92 231 0 231 0 105 -105 c58 -58 109 -105 115 -105 6 0 29 18 50 40 l40 41 -126 124 -126 125 -288 0 -288 0 -119 -118z"/>
    <path d="M190 2355 c-100 -32 -179 -132 -187 -239 -21 -252 268 -399 455 -231 69 62 95 126 90 219 -4 81 -24 129 -74 180 -72 74 -186 103 -284 71z"/>
    <path d="M1099 2356 c-123 -44 -192 -139 -192 -266 0 -83 28 -143 93 -204 173 -162 460 -34 460 205 0 184 -193 325 -361 265z"/>
    <path d="M2000 2355 c-61 -19 -125 -76 -158 -139 -22 -42 -27 -64 -27 -126 0 -65 4 -82 30 -128 53 -97 132 -145 240 -146 131 -2 235 76 271 202 20 68 13 127 -22 199 -58 119 -205 180 -334 138z"/>
    <path d="M2903 2354 c-59 -21 -132 -89 -159 -149 -17 -36 -24 -68 -24 -115 0 -187 175 -318 355 -265 77 22 165 106 184 177 17 60 10 162 -13 210 -59 123 -215 187 -343 142z"/>
    <path d="M3817 2356 c-99 -36 -166 -112 -187 -212 -22 -106 25 -223 116 -283 220 -145 493 59 420 314 -42 142 -211 230 -349 181z"/>
    <path d="M4716 2354 c-65 -21 -146 -101 -169 -168 -46 -135 11 -279 137 -343 67 -35 169 -38 237 -7 143 66 205 236 136 377 -62 125 -206 184 -341 141z"/>
    <path d="M5640 2361 c-118 -36 -199 -146 -200 -271 0 -254 312 -373 480 -183 73 83 91 214 42 310 -57 110 -208 178 -322 144z"/>
    <path d="M200 1451 c-46 -14 -85 -39 -121 -78 -51 -53 -71 -97 -77 -169 -13 -166 111 -299 278 -298 79 1 124 19 183 73 151 140 100 400 -91 465 -48 17 -129 20 -172 7z"/>
    <path d="M1084 1444 c-144 -53 -216 -227 -154 -372 25 -58 91 -125 148 -149 61 -27 158 -22 225 11 207 101 209 392 3 498 -53 27 -165 34 -222 12z"/>
    <path d="M2010 1451 c-126 -39 -211 -169 -196 -298 17 -146 130 -247 275 -247 80 0 142 25 196 79 114 114 107 304 -16 408 -67 58 -177 82 -259 58z"/>
    <path d="M2871 1429 c-107 -54 -159 -149 -149 -274 12 -146 128 -249 278 -248 154 1 269 119 270 276 0 115 -49 195 -152 246 -86 43 -161 43 -247 0z"/>
    <path d="M3803 1444 c-106 -39 -178 -146 -177 -264 1 -81 20 -125 79 -189 57 -61 117 -86 201 -85 237 2 361 288 201 462 -23 24 -59 53 -82 64 -53 28 -164 34 -222 12z"/>
    <path d="M4730 1451 c-72 -22 -136 -76 -173 -146 -32 -60 -31 -183 3 -248 48 -95 141 -151 250 -150 79 0 124 18 184 73 63 58 90 118 90 201 0 118 -75 227 -182 263 -48 17 -129 20 -172 7z"/>
    <path d="M5610 1443 c-26 -9 -64 -36 -91 -64 -137 -140 -91 -377 88 -455 58 -25 157 -23 221 5 210 94 215 397 8 503 -55 28 -164 34 -226 11z"/>
    <path d="M7192 1383 c-38 -19 -211 -201 -229 -241 -19 -43 -17 -292 3 -342 29 -72 35 -73 494 -131 228 -29 421 -57 428 -62 8 -7 12 -46 12 -131 l0 -121 -83 -83 -82 -82 -240 0 -240 0 -108 102 -109 101 -41 -41 -42 -42 110 -111 c61 -61 124 -117 142 -125 42 -18 532 -20 566 -2 36 18 221 197 240 231 25 46 25 316 -1 367 -32 65 -47 68 -485 122 -221 26 -412 53 -424 58 -22 9 -23 15 -23 132 l0 122 83 83 83 83 244 0 245 0 105 -105 106 -105 44 45 44 45 -109 110 c-60 60 -124 117 -141 125 -49 23 -545 22 -592 -2z"/>
    <path d="M8252 1338 l3 -63 208 -3 207 -2 0 -605 0 -605 60 0 60 0 0 605 0 605 208 2 207 3 3 63 3 62 -481 0 -481 0 3 -62z"/>
    <path d="M9510 876 c0 -342 4 -534 11 -553 14 -37 206 -231 246 -249 46 -20 400 -20 446 0 18 7 80 63 139 122 82 84 108 117 112 144 4 19 5 265 4 545 l-3 510 -62 3 -63 3 0 -518 0 -518 -88 -88 -87 -87 -180 0 -180 0 -82 87 -83 88 0 518 0 517 -65 0 -65 0 0 -524z"/>
    <path d="M10940 730 l0 -670 334 0 c210 0 345 4 363 11 32 12 218 191 239 231 11 22 14 100 14 428 0 328 -3 406 -14 428 -17 32 -201 215 -233 231 -15 7 -133 11 -362 11 l-341 0 0 -670z m743 451 l87 -88 0 -363 0 -363 -87 -88 -87 -89 -263 0 -263 0 0 540 0 540 263 0 263 0 87 -89z"/>
    <path d="M12202 1343 l3 -58 123 -3 122 -3 0 -549 0 -549 -122 -3 -123 -3 -3 -58 -3 -57 318 2 318 3 0 55 0 55 -127 3 -128 3 0 549 0 549 128 3 127 3 3 58 3 57 -321 0 -321 0 3 -57z"/>
    <path d="M13385 1381 c-58 -36 -225 -215 -235 -251 -13 -45 -13 -753 0 -800 11 -41 208 -243 253 -259 38 -15 526 -15 563 -1 37 14 219 194 239 235 13 28 15 92 15 423 0 248 -4 401 -10 418 -13 33 -193 220 -232 240 -21 11 -84 14 -295 14 -245 0 -271 -2 -298 -19z m625 -196 l85 -85 0 -370 0 -370 -85 -85 -85 -85 -240 0 -240 0 -87 87 -88 88 0 364 0 364 87 88 87 89 241 0 240 0 85 -85z"/>
    <path d="M165 527 c-100 -48 -155 -128 -163 -240 -4 -60 -2 -73 27 -131 52 -106 132 -156 249 -156 156 0 273 117 273 275 0 104 -48 189 -138 242 -67 39 -178 43 -248 10z"/>
    <path d="M1089 536 c-187 -66 -243 -310 -106 -455 104 -109 310 -108 402 1 63 75 89 179 66 265 -32 118 -144 203 -264 203 -34 -1 -78 -7 -98 -14z"/>
    <path d="M1975 526 c-268 -125 -183 -526 112 -526 114 0 217 67 261 169 21 48 20 164 -2 214 -62 141 -234 207 -371 143z"/>
    <path d="M2892 533 c-59 -21 -135 -99 -156 -159 -33 -98 -14 -208 50 -282 104 -122 310 -124 415 -4 50 56 69 108 69 188 0 160 -118 275 -279 273 -31 0 -75 -7 -99 -16z"/>
    <path d="M3790 529 c-59 -26 -106 -72 -138 -134 -31 -61 -35 -167 -8 -228 78 -177 317 -225 452 -90 175 175 51 473 -196 473 -44 0 -80 -7 -110 -21z"/>
    <path d="M4678 517 c-138 -71 -188 -238 -112 -377 51 -93 132 -140 241 -140 300 1 384 406 109 531 -27 12 -64 19 -108 19 -56 0 -76 -5 -130 -33z"/>
    <path d="M5616 535 c-54 -19 -106 -63 -141 -120 -40 -64 -48 -178 -17 -247 47 -108 140 -168 256 -168 85 0 137 21 193 77 53 53 76 106 81 186 4 61 1 75 -28 133 -33 68 -85 116 -153 141 -44 16 -144 15 -191 -2z"/>
  </g>
</svg>